<?xml version="1.0" standalone="no"?>
<!DOCTYPE svg PUBLIC "-//W3C//DTD SVG 20010904//EN"
 "http://www.w3.org/TR/2001/REC-SVG-20010904/DTD/svg10.dtd">
<svg version="1.0" xmlns="http://www.w3.org/2000/svg"
 width="225.000000pt" height="224.000000pt" viewBox="0 0 225.000000 224.000000"
 preserveAspectRatio="xMidYMid meet">
<metadata>
Created by potrace 1.16, written by Peter Selinger 2001-2019
</metadata>
<g transform="translate(0.000000,224.000000) scale(0.100000,-0.100000)"
fill="#000000" stroke="none">
<path d="M720 1867 l0 -127 400 0 400 0 0 -105 0 -105 -120 0 -120 0 0 -269 0
-270 28 9 c188 57 297 155 352 316 83 241 -20 505 -237 606 -112 53 -149 58
-435 65 l-268 6 0 -126z"/>
<path d="M720 1250 l0 -280 165 0 165 0 0 280 0 280 -165 0 -165 0 0 -280z"/>
</g>
</svg>
