<?xml version="1.0" standalone="no"?>
<!DOCTYPE svg PUBLIC "-//W3C//DTD SVG 20010904//EN"
 "http://www.w3.org/TR/2001/REC-SVG-20010904/DTD/svg10.dtd">
<svg version="1.0" xmlns="http://www.w3.org/2000/svg"
 width="273.000000pt" height="66.000000pt" viewBox="0 0 273.000000 66.000000"
 preserveAspectRatio="xMidYMid meet">

<g transform="translate(0.000000,66.000000) scale(0.100000,-0.100000)"
fill="#000000" stroke="none">
<path d="M445 325 l0 -115 41 0 c26 0 51 7 65 19 21 17 24 27 24 96 0 69 -3
79 -24 96 -14 12 -39 19 -65 19 l-41 0 0 -115z m83 3 c-2 -70 -7 -103 -15
-106 -10 -3 -13 22 -13 102 0 89 3 106 15 106 13 0 15 -16 13 -102z"/>
<path d="M1100 414 l0 -26 20 23 20 24 -2 -113 -3 -112 30 0 30 0 -3 110 c-3
108 4 132 27 93 9 -16 10 -16 11 5 0 21 -4 22 -65 22 -63 0 -65 -1 -65 -26z"/>
<path d="M1588 325 l3 -115 32 1 c18 0 26 3 20 6 -9 3 -13 36 -13 114 0 106
-1 109 -22 109 -23 0 -23 -1 -20 -115z"/>
<path d="M608 303 c4 -67 14 -93 36 -93 7 0 10 25 8 80 -3 74 -5 80 -25 80
-21 0 -22 -4 -19 -67z"/>
<path d="M668 361 c9 -5 13 -28 12 -67 -2 -86 -3 -84 33 -83 17 0 26 3 20 6
-9 3 -13 29 -13 79 l0 74 -32 0 c-22 0 -28 -3 -20 -9z"/>
<path d="M772 358 c-19 -19 -15 -50 6 -46 11 3 16 12 15 26 -2 14 3 22 12 22
11 0 15 -17 17 -72 3 -64 5 -73 23 -76 19 -3 20 1 15 68 -5 74 -15 90 -55 90
-12 0 -26 -5 -33 -12z"/>
<path d="M912 358 c-19 -19 -15 -50 6 -46 11 3 16 12 15 26 -2 14 3 22 12 22
11 0 15 -17 17 -72 3 -64 5 -73 23 -76 19 -3 20 1 15 68 -5 74 -15 90 -55 90
-12 0 -26 -5 -33 -12z"/>
<path d="M1255 290 l0 -80 30 0 30 0 -2 77 c-1 78 -1 78 -30 81 l-28 3 0 -81z"/>
<path d="M1324 348 c1 -13 7 -23 16 -23 20 0 19 39 -1 43 -11 2 -16 -4 -15
-20z"/>
<path d="M1392 358 c-19 -19 -15 -50 6 -46 11 3 16 12 15 26 -2 14 3 22 13 22
12 0 14 -12 12 -65 -2 -36 -7 -65 -13 -65 -16 -1 -18 39 -3 57 12 14 11 15 -8
5 -65 -35 -54 -76 22 -79 l49 -1 -5 69 c-5 73 -15 89 -55 89 -12 0 -26 -5 -33
-12z"/>
<path d="M1542 361 c-19 -11 -30 -70 -21 -105 9 -31 24 -46 49 -46 11 0 11 3
2 12 -16 16 -16 135 1 141 8 4 7 6 -3 6 -8 0 -21 -3 -28 -8z"/>
<path d="M1684 349 c-11 -13 -19 -35 -19 -59 0 -62 50 -99 95 -70 11 7 7 9
-15 7 -27 -2 -30 1 -33 31 -3 31 -2 32 32 32 31 0 36 3 36 23 0 28 -29 57 -57
57 -11 0 -28 -9 -39 -21z m54 -22 c2 -19 -1 -27 -12 -27 -11 0 -16 10 -16 31
0 38 24 35 28 -4z"/>
<path d="M1805 290 l0 -80 30 0 30 0 -2 77 c-1 78 -1 78 -30 81 l-28 3 0 -81z"/>
<path d="M1874 348 c1 -13 7 -23 16 -23 20 0 19 39 -1 43 -11 2 -16 -4 -15
-20z"/>
<path d="M1932 358 c-22 -22 -13 -55 25 -85 21 -18 33 -34 29 -41 -12 -19 -36
-14 -46 11 l-9 22 0 -22 c-1 -16 6 -24 24 -29 33 -8 55 11 55 48 0 22 -8 33
-35 49 -38 23 -44 36 -19 46 11 4 22 -1 30 -12 12 -16 14 -16 14 -3 0 26 -47
37 -68 16z"/>
<path d="M773 276 c-23 -20 -26 -28 -17 -43 6 -10 22 -20 35 -21 19 -3 22 -1
12 9 -16 16 -17 51 -1 67 22 22 0 12 -29 -12z"/>
<path d="M913 276 c-23 -20 -26 -28 -17 -43 6 -10 22 -20 35 -21 19 -3 22 -1
12 9 -16 16 -17 51 -1 67 22 22 0 12 -29 -12z"/>
</g>
</svg>
