<?xml version="1.0" standalone="no"?>
<!DOCTYPE svg PUBLIC "-//W3C//DTD SVG 20010904//EN"
 "http://www.w3.org/TR/2001/REC-SVG-20010904/DTD/svg10.dtd">
<svg version="1.0" xmlns="http://www.w3.org/2000/svg"
 width="191.000000pt" height="56.000000pt" viewBox="0 0 191.000000 56.000000"
 preserveAspectRatio="xMidYMid meet">
<metadata>
Created by potrace 1.16, written by Peter Selinger 2001-2019
</metadata>
<g transform="translate(0.000000,56.000000) scale(0.100000,-0.100000)"
fill="#000000" stroke="none">
<path d="M950 438 c-46 -13 -60 -26 -60 -54 0 -18 5 -24 23 -24 16 0 18 3 9 9
-17 10 59 31 114 31 36 0 36 0 20 -22 -72 -102 -115 -196 -85 -186 8 2 32 41
55 87 22 45 46 87 52 93 15 15 15 51 0 66 -14 14 -79 14 -128 0z"/>
<path d="M140 422 c-37 -14 -46 -23 -48 -46 -3 -20 0 -27 10 -23 7 2 12 9 11
15 -1 5 16 14 37 20 22 5 40 8 40 7 0 -2 -18 -32 -40 -67 -22 -35 -41 -75 -42
-88 -3 -23 0 -25 40 -23 122 5 213 135 138 199 -33 29 -81 31 -146 6z m140
-42 c25 -25 25 -41 -1 -74 -37 -47 -149 -89 -149 -55 0 6 16 38 35 70 19 33
35 64 35 70 0 17 60 9 80 -11z"/>
<path d="M1477 400 c-8 -14 -21 -37 -28 -52 -6 -15 -17 -24 -24 -21 -19 7 -55
-14 -93 -55 -24 -26 -36 -32 -44 -24 -8 8 -8 15 -1 24 6 7 13 25 17 41 5 21 3
27 -9 27 -26 0 -68 -26 -104 -64 -19 -20 -40 -36 -47 -36 -15 0 -7 35 12 51
23 19 16 36 -18 42 -38 6 -52 -4 -53 -36 -1 -13 -5 -30 -9 -38 -4 -7 1 -5 11
6 10 12 26 24 36 28 17 6 17 5 2 -15 -32 -46 -12 -81 31 -53 24 16 26 15 39
-2 13 -17 15 -17 39 6 26 24 26 24 26 3 0 -28 21 -28 45 -1 l19 20 17 -22 16
-22 22 22 c26 26 31 26 31 2 0 -30 15 -33 44 -10 26 20 28 20 40 4 18 -24 52
-14 99 29 20 18 44 37 53 40 13 5 13 3 -1 -16 -31 -46 -13 -80 29 -52 23 15
27 15 41 0 23 -22 39 -20 72 10 23 21 24 23 6 14 -17 -8 -29 -8 -45 1 -33 17
-33 18 -12 34 28 22 37 18 29 -12 -6 -27 -6 -27 15 -8 16 15 19 26 14 49 -3
17 -8 32 -9 34 -2 2 -26 -22 -55 -52 -29 -31 -59 -56 -66 -56 -19 0 -17 10 6
40 28 35 25 47 -12 53 -39 6 -52 -4 -54 -41 0 -15 -5 -27 -10 -27 -5 -1 -19
-7 -32 -14 -25 -13 -52 -9 -52 9 0 5 6 10 14 10 20 0 66 39 66 56 0 31 -45 13
-90 -36 -77 -83 -94 -60 -34 47 34 62 44 113 11 63z"/>
<path d="M402 295 c-45 -47 -70 -59 -53 -27 5 10 17 24 25 32 19 15 21 30 3
30 -23 0 -59 -59 -53 -86 8 -30 23 -30 52 -3 22 21 23 21 17 1 -7 -29 11 -35
40 -12 l25 20 15 -23 15 -22 26 24 c26 24 26 24 26 3 0 -28 21 -28 45 -1 l19
20 17 -23 18 -23 25 24 c26 24 26 24 26 3 0 -30 21 -28 51 4 23 25 23 26 2 15
-25 -13 -41 2 -25 22 17 22 21 58 7 63 -19 7 -52 -12 -103 -58 -31 -29 -47
-37 -55 -29 -7 7 -7 14 2 25 20 24 24 66 6 66 -25 0 -67 -25 -99 -59 -47 -49
-76 -39 -36 12 20 26 26 47 13 47 -5 0 -27 -21 -51 -45z"/>
</g>
</svg>
